<?xml version="1.0" encoding="UTF-8"?>
<svg height="128px" viewBox="0 0 128 128" width="128px" xmlns="http://www.w3.org/2000/svg" xmlns:xlink="http://www.w3.org/1999/xlink">
    <linearGradient id="a" gradientUnits="userSpaceOnUse">
        <stop offset="0" stop-color="#77767b"/>
        <stop offset="0.0357143" stop-color="#c0bfbc"/>
        <stop offset="0.0713653" stop-color="#9a9996"/>
        <stop offset="0.928571" stop-color="#9a9996"/>
        <stop offset="0.964286" stop-color="#c0bfbc"/>
        <stop offset="1" stop-color="#77767b"/>
    </linearGradient>
    <linearGradient id="b" x1="8.0000155" x2="120.0000155" xlink:href="#a" y1="119.999978" y2="119.999978"/>
    <linearGradient id="c" gradientUnits="userSpaceOnUse">
        <stop offset="0" stop-color="#dd0000"/>
        <stop offset="0.21275" stop-color="#a30000"/>
        <stop offset="0.832119" stop-color="#a30000"/>
        <stop offset="1" stop-color="#5c0000"/>
    </linearGradient>
    <linearGradient id="d" x1="70" x2="70" xlink:href="#c" y1="46.025865" y2="53.951372"/>
    <linearGradient id="e" x1="72" x2="72" xlink:href="#c" y1="56.025865" y2="63.951372"/>
    <linearGradient id="f" x1="68" x2="68" xlink:href="#c" y1="66.025865" y2="73.951372"/>
    <linearGradient id="g" x1="70" x2="70" xlink:href="#c" y1="76.025865" y2="83.951372"/>
    <linearGradient id="h" x1="66" x2="66" xlink:href="#c" y1="86.025865" y2="93.951372"/>
    <linearGradient id="i" x1="72" x2="72" xlink:href="#c" y1="96.025865" y2="103.951372"/>
    <linearGradient id="j" x1="8.0000155" x2="100.000008" xlink:href="#a" y1="115.999979" y2="115.999979"/>
    <path d="m 16 40 h 96 c 4.417969 0 8 3.582031 8 8 v 56 c 0 4.417969 -3.582031 8 -8 8 h -96 c -4.417969 0 -8 -3.582031 -8 -8 v -56 c 0 -4.417969 3.582031 -8 8 -8 z m 0 0" fill="url(#b)"/>
    <path d="m 16 44 h 96 c 4.417969 0 8 3.582031 8 8 v 48 c 0 4.417969 -3.582031 8 -8 8 h -96 c -4.417969 0 -8 -3.582031 -8 -8 v -48 c 0 -4.417969 3.582031 -8 8 -8 z m 0 0" fill="#cccccc"/>
    <path d="m 28 46 h 84 c 2.210938 0 4 1.789062 4 4 s -1.789062 4 -4 4 h -84 c -2.210938 0 -4 -1.789062 -4 -4 s 1.789062 -4 4 -4 z m 0 0" fill="url(#d)"/>
    <path d="m 24.335938 46 h 83.328124 c 0.1875 0 0.335938 1.789062 0.335938 4 s -0.148438 4 -0.335938 4 h -83.328124 c -0.1875 0 -0.335938 -1.789062 -0.335938 -4 s 0.148438 -4 0.335938 -4 z m 0 0" fill="#f8f8ab"/>
    <path d="m 30 56 h 84 c 2.210938 0 4 1.789062 4 4 s -1.789062 4 -4 4 h -84 c -2.210938 0 -4 -1.789062 -4 -4 s 1.789062 -4 4 -4 z m 0 0" fill="url(#e)"/>
    <path d="m 26.335938 56 h 83.328124 c 0.1875 0 0.335938 1.789062 0.335938 4 s -0.148438 4 -0.335938 4 h -83.328124 c -0.1875 0 -0.335938 -1.789062 -0.335938 -4 s 0.148438 -4 0.335938 -4 z m 0 0" fill="#f8f8ab"/>
    <path d="m 26 66 h 84 c 2.210938 0 4 1.789062 4 4 s -1.789062 4 -4 4 h -84 c -2.210938 0 -4 -1.789062 -4 -4 s 1.789062 -4 4 -4 z m 0 0" fill="url(#f)"/>
    <path d="m 22.335938 66 h 83.328124 c 0.1875 0 0.335938 1.789062 0.335938 4 s -0.148438 4 -0.335938 4 h -83.328124 c -0.1875 0 -0.335938 -1.789062 -0.335938 -4 s 0.148438 -4 0.335938 -4 z m 0 0" fill="#f8f8ab"/>
    <path d="m 28 76 h 84 c 2.210938 0 4 1.789062 4 4 s -1.789062 4 -4 4 h -84 c -2.210938 0 -4 -1.789062 -4 -4 s 1.789062 -4 4 -4 z m 0 0" fill="url(#g)"/>
    <path d="m 24.335938 76 h 83.328124 c 0.1875 0 0.335938 1.789062 0.335938 4 s -0.148438 4 -0.335938 4 h -83.328124 c -0.1875 0 -0.335938 -1.789062 -0.335938 -4 s 0.148438 -4 0.335938 -4 z m 0 0" fill="#f8f8ab"/>
    <path d="m 24 86 h 84 c 2.210938 0 4 1.789062 4 4 s -1.789062 4 -4 4 h -84 c -2.210938 0 -4 -1.789062 -4 -4 s 1.789062 -4 4 -4 z m 0 0" fill="url(#h)"/>
    <path d="m 20.335938 86 h 83.328124 c 0.1875 0 0.335938 1.789062 0.335938 4 s -0.148438 4 -0.335938 4 h -83.328124 c -0.1875 0 -0.335938 -1.789062 -0.335938 -4 s 0.148438 -4 0.335938 -4 z m 0 0" fill="#f8f8ab"/>
    <path d="m 30 96 h 84 c 2.210938 0 4 1.789062 4 4 s -1.789062 4 -4 4 h -84 c -2.210938 0 -4 -1.789062 -4 -4 s 1.789062 -4 4 -4 z m 0 0" fill="url(#i)"/>
    <path d="m 26.335938 96 h 83.328124 c 0.1875 0 0.335938 1.789062 0.335938 4 s -0.148438 4 -0.335938 4 h -83.328124 c -0.1875 0 -0.335938 -1.789062 -0.335938 -4 s 0.148438 -4 0.335938 -4 z m 0 0" fill="#f8f8ab"/>
    <path d="m 16 56 h 76 c 4.417969 0 8 3.582031 8 8 v 44 c 0 4.417969 -3.582031 8 -8 8 h -76 c -4.417969 0 -8 -3.582031 -8 -8 v -44 c 0 -4.417969 3.582031 -8 8 -8 z m 0 0" fill="url(#j)"/>
    <path d="m 16 36 h 76 c 4.417969 0 8 3.582031 8 8 v 60 c 0 4.417969 -3.582031 8 -8 8 h -76 c -4.417969 0 -8 -3.582031 -8 -8 v -60 c 0 -4.417969 3.582031 -8 8 -8 z m 0 0" fill="#ffffff"/>
    <path d="m 52.484375 65.300781 c 1.402344 0 2.765625 0.128907 4.066406 0.367188 l 3.097657 -3.226563 c -2.164063 -0.75 -4.597657 -1.171875 -7.164063 -1.171875 c -4.371094 0 -8.335937 1.21875 -11.277344 3.203125 l 2.699219 2.554688 c 2.496094 -1.09375 5.429688 -1.726563 8.578125 -1.726563" fill="#98999b"/>
    <path d="m 52.484375 61.269531 c 2.566406 0 5 0.421875 7.164063 1.171875 l 3.367187 -3.503906 c -3.140625 -1.238281 -6.726563 -1.941406 -10.53125 -1.941406 c -5.675781 0 -10.855469 1.558594 -14.808594 4.128906 l 3.53125 3.347656 c 2.941407 -1.984375 6.90625 -3.203125 11.277344 -3.203125" fill="#ffffff"/>
    <path d="m 36.320312 74.984375 c 0.28125 -1.15625 0.804688 -2.253906 1.527344 -3.269531 l -1.359375 -1.371094 c -0.265625 0.84375 -0.417969 1.722656 -0.417969 2.625 c 0 0.6875 0.085938 1.359375 0.25 2.015625" fill="#98999b"/>
    <path d="m 26.296875 82.566406 l -0.570313 2.953125 l 5.667969 -2.441406 c -0.359375 -0.75 -0.429687 -1.730469 -0.636719 -2.527344 z m 0 0" fill="#98999b"/>
    <path d="m 22.3125 50.46875 l -8.199219 44.898438 l 3.875 0.3125 l 8.121094 -45.550782 z m 0 0" fill="#98999b"/>
    <path d="m 49.882812 76.304688 v -3.632813 l -5.957031 -5.644531 l -2.695312 -2.554688 l -3.53125 -3.347656 l -11.605469 -10.996094 l -8.121094 45.550782 l 17.183594 -7.554688 c -1.710938 -1.507812 -2.921875 -3.121094 -3.824219 -5.019531 l -5.59375 2.398437 l 0.5625 -2.9375 l 3.625 -18.890625 l 0.300781 -1.585937 l 2.996094 3.015625 l 3.847656 3.875 l 1.652344 1.667969 l 6.800782 5.855468 l -6.597657 3.023438 c 1.710938 1.710937 3.742188 3.21875 6.476563 4.070312 l 8.234375 -3.695312 z m 0 0" fill="#ed1c24"/>
    <g fill="#98999b">
        <path d="m 68.648438 74.984375 c 0.160156 -0.65625 0.246093 -1.328125 0.246093 -2.015625 c 0 -2.027344 -0.742187 -3.941406 -2.015625 -5.605469 l -1.957031 2.023438 c 1.878906 1.5625 3.210937 3.488281 3.726563 5.597656"/>
        <path d="m 72.320312 94.199219 l -4.628906 -4.449219 c -0.742187 0.503906 -1.535156 0.976562 -2.363281 1.40625 l 6.992187 6.714844 l 21.566407 -22.464844 l -0.023438 -3.636719 z m 0 0"/>
        <path d="m 56.605469 79.113281 l -3.8125 -3.664062 l -2.921875 -2.785157 l -0.007813 3.640626 l 4.101563 3.941406 l 3.925781 3.769531 c 0.996094 -0.25 1.949219 -0.5625 2.84375 -0.9375 z m 0 0"/>
        <path d="m 71.601562 58.800781 l -3.070312 3.195313 l -3.386719 3.53125 l -2.308593 2.402344 l -4.375 4.554687 l 1.832031 1.757813 l 4.65625 -4.84375 l 1.945312 -2.027344 l 3.566407 -3.714844 l 1.140624 -1.1875 l 11.859376 11.367188 l 1.835937 -1.902344 z m 0 0"/>
    </g>
    <path d="m 70.460938 63.65625 l -3.566407 3.714844 c 1.277344 1.660156 2 3.570312 2 5.597656 c 0 0.6875 -0.085937 1.359375 -0.246093 2.015625 c -0.417969 1.707031 -1.351563 3.285156 -2.6875 4.652344 c -1.363282 1.402343 -3.148438 2.578125 -5.226563 3.441406 c -0.894531 0.375 -1.847656 0.6875 -2.84375 0.9375 c -1.691406 0.417969 -3.511719 0.648437 -5.40625 0.648437 c -2.335937 0 -4.550781 -0.347656 -6.558594 -0.972656 c -2.738281 -0.851562 -5.085937 -2.21875 -6.800781 -3.933594 c -0.625 -0.625 -1.167969 -1.296874 -1.613281 -2.003906 c -0.550781 -0.871094 -0.953125 -1.800781 -1.191407 -2.769531 c -0.164062 -0.65625 -0.25 -1.328125 -0.25 -2.015625 c 0 -0.902344 0.152344 -1.78125 0.417969 -2.625 l -4.09375 -4.144531 c -1.5 2.222656 -2.347656 4.730469 -2.347656 7.382812 c 0 0.683594 0.066406 1.355469 0.171875 2.015625 c 0.261719 1.605469 0.839844 3.136719 1.675781 4.566406 c 0.417969 0.714844 0.90625 1.40625 1.457031 2.070313 c 1.441407 1.738281 3.296876 3.261719 5.476563 4.5 c 3.777344 2.152344 8.511719 3.433594 13.65625 3.433594 c 3.597656 0 6.992187 -0.625 10.003906 -1.738281 c 0.917969 -0.335938 1.792969 -0.71875 2.632813 -1.144532 c 1.941406 -0.980468 3.664062 -2.183594 5.101562 -3.554687 c 2.414063 -2.304688 4.027344 -5.09375 4.523438 -8.132813 c 0.109375 -0.660156 0.171875 -1.332031 0.171875 -2.015625 c 0 -3.722656 -1.65625 -7.15625 -4.457031 -9.925781" fill="#ffffff"/>
    <path d="m 56.585938 79.140625 l 4.117187 3.953125 c 2.074219 -0.863281 3.871094 -2.027344 5.238281 -3.429688 l -5.640625 -5.417968 l -1.835937 -1.757813 l 4.351562 -4.53125 l 2.308594 -2.40625 l 3.386719 -3.527343 l 3.070312 -3.195313 l 13.660157 13.113281 l -1.832032 1.914063 l -11.191406 11.652343 c -1.179688 1.613282 -2.707031 3.046876 -4.515625 4.285157 l 4.597656 4.4375 l 21.566407 -22.460938 l -22.460938 -21.566406 l -8.410156 8.761719 l -3.367188 3.503906 l -3.097656 3.226562 l -6.660156 6.96875 z m 0 0" fill="#1c63b7"/>
    <path d="m 37.605469 77.867188 s 0.105469 0.175781 0.121093 0.195312 c 0.328126 0.523438 0.78125 1.003906 1.207032 1.480469 l 6.710937 -3.097657 l -15.417969 -14.359374 l -0.421874 2.222656 l 12.097656 11.972656 z m 0 0" fill="#98999b"/>
    <path d="m 74.917969 73.582031 c 0 0.683594 -0.0625 1.355469 -0.171875 2.015625 c -0.496094 3.039063 -2.109375 5.828125 -4.523438 8.132813 c -1.4375 1.371093 -3.160156 2.574219 -5.101562 3.554687 c -0.839844 0.425782 -1.714844 0.808594 -2.632813 1.144532 c -3.011719 1.113281 -6.40625 1.738281 -10.003906 1.738281 c -5.144531 0 -9.878906 -1.28125 -13.65625 -3.433594 c -2.179687 -1.238281 -4.035156 -2.761719 -5.476563 -4.5 c -0.550781 -0.664063 -1.039062 -1.355469 -1.457031 -2.070313 c -0.835937 -1.429687 -1.414062 -2.960937 -1.675781 -4.566406 c -0.105469 -0.660156 -0.171875 -1.332031 -0.171875 -2.015625 c 0 -0.214843 0.019531 -0.425781 0.027344 -0.636719 c 0 -0.011718 -0.003907 -0.03125 -0.007813 -0.039062 c -0.109375 0.660156 -0.019531 4.027344 -0.019531 4.707031 c 0 1.082031 0.144531 2.140625 0.414063 3.164063 c 0.207031 0.800781 0.496093 1.574218 0.851562 2.328125 c 0.902344 1.898437 2.253906 3.640625 3.964844 5.152343 c 4.117187 3.628907 10.296875 5.941407 17.207031 5.941407 c 4.792969 0 9.234375 -1.113281 12.878906 -3.007813 c 0.828125 -0.429687 1.617188 -0.902344 2.355469 -1.40625 c 1.808594 -1.238281 3.339844 -2.691406 4.519531 -4.304687 c 1.707031 -2.339844 2.679688 -5.019531 2.679688 -7.867188 c 0 -0.597656 0.050781 -3.445312 -0.007813 -4.574219 c -0.007812 -0.15625 0.007813 0.347657 0.007813 0.542969" fill="#98999b"/>
    <path d="m 74.839844 96.585938 h -0.425782 v -0.152344 h 1.035157 v 0.152344 h -0.425781 v 1.25 h -0.183594 z m 0 0" fill="#98999b"/>
    <path d="m 76.75 97.21875 c -0.011719 -0.195312 -0.023438 -0.429688 -0.019531 -0.605469 h -0.007813 c -0.046875 0.164063 -0.105468 0.339844 -0.175781 0.53125 l -0.25 0.683594 h -0.136719 l -0.226562 -0.667969 c -0.066406 -0.199218 -0.125 -0.378906 -0.164063 -0.546875 h -0.003906 c -0.003906 0.175781 -0.015625 0.410157 -0.027344 0.621094 l -0.035156 0.601563 h -0.171875 l 0.097656 -1.402344 h 0.230469 l 0.238281 0.675781 c 0.058594 0.175781 0.105469 0.328125 0.140625 0.472656 h 0.007813 c 0.035156 -0.140625 0.085937 -0.292969 0.148437 -0.472656 l 0.25 -0.675781 h 0.230469 l 0.085938 1.402344 h -0.175782 z m 0 0" fill="#98999b"/>
</svg>
