<?xml version="1.0" encoding="UTF-8" standalone="no"?>
<!-- Created with Inkscape (http://www.inkscape.org/) -->

<svg
   width="128"
   height="128"
   viewBox="0 0 128 128"
   version="1.1"
   id="svg5"
   inkscape:version="1.2.2 (b0a8486541, 2022-12-01)"
   sodipodi:docname="us.brainstormz.MatchBox.Splash.svg"
   xmlns:inkscape="http://www.inkscape.org/namespaces/inkscape"
   xmlns:sodipodi="http://sodipodi.sourceforge.net/DTD/sodipodi-0.dtd"
   xmlns:xlink="http://www.w3.org/1999/xlink"
   xmlns="http://www.w3.org/2000/svg"
   xmlns:svg="http://www.w3.org/2000/svg">
  <sodipodi:namedview
     id="namedview7"
     pagecolor="#333333"
     bordercolor="#666666"
     borderopacity="1.0"
     inkscape:showpageshadow="2"
     inkscape:pageopacity="1"
     inkscape:pagecheckerboard="0"
     inkscape:deskcolor="#d1d1d1"
     inkscape:document-units="mm"
     showgrid="false"
     inkscape:zoom="4.3709297"
     inkscape:cx="66.690617"
     inkscape:cy="60.856618"
     inkscape:window-width="1920"
     inkscape:window-height="1005"
     inkscape:window-x="0"
     inkscape:window-y="0"
     inkscape:window-maximized="1"
     inkscape:current-layer="layer1" />
  <defs
     id="defs2">
    <linearGradient
       id="j"
       x1="8.0000153"
       x2="100.00001"
       xlink:href="#a"
       y1="115.99998"
       y2="115.99998"
       gradientTransform="translate(0,-28)" />
    <linearGradient
       id="a"
       gradientUnits="userSpaceOnUse">
      <stop
         offset="0"
         stop-color="#77767b"
         id="stop132" />
      <stop
         offset="0.0357143"
         stop-color="#c0bfbc"
         id="stop134" />
      <stop
         offset="0.0713653"
         stop-color="#9a9996"
         id="stop136" />
      <stop
         offset="0.928571"
         stop-color="#9a9996"
         id="stop138" />
      <stop
         offset="0.964286"
         stop-color="#c0bfbc"
         id="stop140" />
      <stop
         offset="1"
         stop-color="#77767b"
         id="stop142" />
    </linearGradient>
    <linearGradient
       id="i"
       x1="72"
       x2="72"
       xlink:href="#c"
       y1="96.025864"
       y2="103.95137"
       gradientTransform="translate(0,-28)" />
    <linearGradient
       id="c"
       gradientUnits="userSpaceOnUse">
      <stop
         offset="0"
         stop-color="#dd0000"
         id="stop146" />
      <stop
         offset="0.21275"
         stop-color="#a30000"
         id="stop148" />
      <stop
         offset="0.832119"
         stop-color="#a30000"
         id="stop150" />
      <stop
         offset="1"
         stop-color="#5c0000"
         id="stop152" />
    </linearGradient>
    <linearGradient
       id="h"
       x1="66"
       x2="66"
       xlink:href="#c"
       y1="86.025864"
       y2="93.95137"
       gradientTransform="translate(0,-28)" />
    <linearGradient
       id="g"
       x1="70"
       x2="70"
       xlink:href="#c"
       y1="76.025864"
       y2="83.95137"
       gradientTransform="translate(0,-28)" />
    <linearGradient
       id="f"
       x1="68"
       x2="68"
       xlink:href="#c"
       y1="66.025864"
       y2="73.95137"
       gradientTransform="translate(0,-28)" />
    <linearGradient
       id="e"
       x1="72"
       x2="72"
       xlink:href="#c"
       y1="56.025864"
       y2="63.95137"
       gradientTransform="translate(0,-28)" />
    <linearGradient
       id="d"
       x1="70"
       x2="70"
       xlink:href="#c"
       y1="46.025864"
       y2="53.95137"
       gradientTransform="translate(0,-28)" />
    <linearGradient
       id="b"
       x1="8.0000153"
       x2="120.00002"
       xlink:href="#a"
       y1="119.99998"
       y2="119.99998"
       gradientTransform="translate(0,-28)" />
  </defs>
  <g
     inkscape:label="Layer 1"
     inkscape:groupmode="layer"
     id="layer1">
    <path
       d="m 16,12 h 96 c 4.41797,0 8,3.582031 8,8 v 56 c 0,4.41797 -3.58203,8 -8,8 H 16 C 11.582031,84 8,80.41797 8,76 V 20 c 0,-4.417969 3.582031,-8 8,-8 z m 0,0"
       fill="url(#b)"
       id="path162"
       style="fill:url(#b)" />
    <path
       d="m 16,16 h 96 c 4.41797,0 8,3.582031 8,8 v 48 c 0,4.41797 -3.58203,8 -8,8 H 16 C 11.582031,80 8,76.41797 8,72 V 24 c 0,-4.417969 3.582031,-8 8,-8 z m 0,0"
       fill="#e6e6e6"
       id="path164"
       style="fill:#cccccc" />
    <path
       d="m 28,18 h 84 c 2.21094,0 4,1.789062 4,4 0,2.210938 -1.78906,4 -4,4 H 28 c -2.210938,0 -4,-1.789062 -4,-4 0,-2.210938 1.789062,-4 4,-4 z m 0,0"
       fill="url(#d)"
       id="path166"
       style="fill:url(#d)" />
    <path
       d="m 24.335938,18 h 83.328122 c 0.1875,0 0.33594,1.789062 0.33594,4 0,2.210938 -0.14844,4 -0.33594,4 H 24.335938 C 24.148438,26 24,24.210938 24,22 c 0,-2.210938 0.148438,-4 0.335938,-4 z m 0,0"
       fill="#f8f8ab"
       id="path168" />
    <path
       d="m 30,28 h 84 c 2.21094,0 4,1.789062 4,4 0,2.210938 -1.78906,4 -4,4 H 30 c -2.210938,0 -4,-1.789062 -4,-4 0,-2.210938 1.789062,-4 4,-4 z m 0,0"
       fill="url(#e)"
       id="path170"
       style="fill:url(#e)" />
    <path
       d="m 26.335938,28 h 83.328122 c 0.1875,0 0.33594,1.789062 0.33594,4 0,2.210938 -0.14844,4 -0.33594,4 H 26.335938 C 26.148438,36 26,34.210938 26,32 c 0,-2.210938 0.148438,-4 0.335938,-4 z m 0,0"
       fill="#f8f8ab"
       id="path172" />
    <path
       d="m 26,38 h 84 c 2.21094,0 4,1.789062 4,4 0,2.210938 -1.78906,4 -4,4 H 26 c -2.210938,0 -4,-1.789062 -4,-4 0,-2.210938 1.789062,-4 4,-4 z m 0,0"
       fill="url(#f)"
       id="path174"
       style="fill:url(#f)" />
    <path
       d="m 22.335938,38 h 83.328122 c 0.1875,0 0.33594,1.789062 0.33594,4 0,2.210938 -0.14844,4 -0.33594,4 H 22.335938 C 22.148438,46 22,44.210938 22,42 c 0,-2.210938 0.148438,-4 0.335938,-4 z m 0,0"
       fill="#f8f8ab"
       id="path176" />
    <path
       d="m 28,48 h 84 c 2.21094,0 4,1.789062 4,4 0,2.210938 -1.78906,4 -4,4 H 28 c -2.210938,0 -4,-1.789062 -4,-4 0,-2.210938 1.789062,-4 4,-4 z m 0,0"
       fill="url(#g)"
       id="path178"
       style="fill:url(#g)" />
    <path
       d="m 24.335938,48 h 83.328122 c 0.1875,0 0.33594,1.789062 0.33594,4 0,2.210938 -0.14844,4 -0.33594,4 H 24.335938 C 24.148438,56 24,54.210938 24,52 c 0,-2.210938 0.148438,-4 0.335938,-4 z m 0,0"
       fill="#f8f8ab"
       id="path180" />
    <path
       d="m 24,58 h 84 c 2.21094,0 4,1.789062 4,4 0,2.210938 -1.78906,4 -4,4 H 24 c -2.210938,0 -4,-1.789062 -4,-4 0,-2.210938 1.789062,-4 4,-4 z m 0,0"
       fill="url(#h)"
       id="path182"
       style="fill:url(#h)" />
    <path
       d="m 20.335938,58 h 83.328122 c 0.1875,0 0.33594,1.789062 0.33594,4 0,2.210938 -0.14844,4 -0.33594,4 H 20.335938 C 20.148438,66 20,64.210938 20,62 c 0,-2.210938 0.148438,-4 0.335938,-4 z m 0,0"
       fill="#f8f8ab"
       id="path184" />
    <path
       d="m 30,68 h 84 c 2.21094,0 4,1.789062 4,4 0,2.21094 -1.78906,4 -4,4 H 30 c -2.210938,0 -4,-1.78906 -4,-4 0,-2.210938 1.789062,-4 4,-4 z m 0,0"
       fill="url(#i)"
       id="path186"
       style="fill:url(#i)" />
    <path
       d="m 26.335938,68 h 83.328122 c 0.1875,0 0.33594,1.789062 0.33594,4 0,2.21094 -0.14844,4 -0.33594,4 H 26.335938 C 26.148438,76 26,74.21094 26,72 c 0,-2.210938 0.148438,-4 0.335938,-4 z m 0,0"
       fill="#f8f8ab"
       id="path188" />
    <path
       d="m 16,28 h 76 c 4.417969,0 8,3.582031 8,8 v 44 c 0,4.41797 -3.582031,8 -8,8 H 16 C 11.582031,88 8,84.41797 8,80 V 36 c 0,-4.417969 3.582031,-8 8,-8 z m 0,0"
       fill="url(#j)"
       id="path190"
       style="fill:url(#j)" />
    <path
       d="m 16,8 h 76 c 4.417969,0 8,3.582031 8,8 v 60 c 0,4.41797 -3.582031,8 -8,8 H 16 C 11.582031,84 8,80.41797 8,76 V 16 c 0,-4.417969 3.582031,-8 8,-8 z m 0,0"
       fill="#ffffff"
       id="path192" />
    <path
       d="m 52.484375,37.300781 c 1.402344,0 2.765625,0.128907 4.066406,0.367188 l 3.097657,-3.226563 c -2.164063,-0.75 -4.597657,-1.171875 -7.164063,-1.171875 -4.371094,0 -8.335937,1.21875 -11.277344,3.203125 l 2.699219,2.554688 c 2.496094,-1.09375 5.429688,-1.726563 8.578125,-1.726563"
       fill="#98999b"
       id="path194" />
    <path
       d="m 52.484375,33.269531 c 2.566406,0 5,0.421875 7.164063,1.171875 L 63.015625,30.9375 C 59.875,29.699219 56.289062,28.996094 52.484375,28.996094 c -5.675781,0 -10.855469,1.558594 -14.808594,4.128906 l 3.53125,3.347656 c 2.941407,-1.984375 6.90625,-3.203125 11.277344,-3.203125"
       fill="#ffffff"
       id="path196" />
    <path
       d="m 36.320312,46.984375 c 0.28125,-1.15625 0.804688,-2.253906 1.527344,-3.269531 L 36.488281,42.34375 c -0.265625,0.84375 -0.417969,1.722656 -0.417969,2.625 0,0.6875 0.08594,1.359375 0.25,2.015625"
       fill="#98999b"
       id="path198" />
    <path
       d="m 26.296875,54.566406 -0.570313,2.953125 5.667969,-2.441406 c -0.359375,-0.75 -0.429687,-1.730469 -0.636719,-2.527344 z m 0,0"
       fill="#98999b"
       id="path200" />
    <path
       d="m 22.3125,22.46875 -8.199219,44.898438 3.875,0.3125 8.121094,-45.550782 z m 0,0"
       fill="#98999b"
       id="path202" />
    <path
       d="M 49.882812,48.304688 V 44.671875 L 43.925781,39.027344 41.230469,36.472656 37.699219,33.125 26.09375,22.128906 17.972656,67.679688 35.15625,60.125 c -1.710938,-1.507812 -2.921875,-3.121094 -3.824219,-5.019531 l -5.59375,2.398437 0.5625,-2.9375 3.625,-18.890625 0.300781,-1.585937 2.996094,3.015625 3.847656,3.875 1.652344,1.667969 6.800782,5.855468 -6.597657,3.023438 c 1.710938,1.710937 3.742188,3.21875 6.476563,4.070312 l 8.234375,-3.695312 z m 0,0"
       fill="#ed1c24"
       id="path204" />
    <g
       fill="#98999b"
       id="g214"
       transform="translate(0,-28)">
      <path
         d="m 68.648438,74.984375 c 0.160156,-0.65625 0.246093,-1.328125 0.246093,-2.015625 0,-2.027344 -0.742187,-3.941406 -2.015625,-5.605469 l -1.957031,2.023438 c 1.878906,1.5625 3.210937,3.488281 3.726563,5.597656"
         id="path206" />
      <path
         d="M 72.320312,94.199219 67.691406,89.75 c -0.742187,0.503906 -1.535156,0.976562 -2.363281,1.40625 l 6.992187,6.714844 21.566407,-22.464844 -0.02344,-3.636719 z m 0,0"
         id="path208" />
      <path
         d="m 56.605469,79.113281 -3.8125,-3.664062 -2.921875,-2.785157 -0.0078,3.640626 4.101563,3.941406 3.925781,3.769531 c 0.996094,-0.25 1.949219,-0.5625 2.84375,-0.9375 z m 0,0"
         id="path210" />
      <path
         d="m 71.601562,58.800781 -3.070312,3.195313 -3.386719,3.53125 -2.308593,2.402344 -4.375,4.554687 1.832031,1.757813 4.65625,-4.84375 1.945312,-2.027344 3.566407,-3.714844 1.140624,-1.1875 11.859376,11.367188 1.835937,-1.902344 z m 0,0"
         id="path212" />
    </g>
    <path
       d="m 70.460938,35.65625 -3.566407,3.714844 c 1.277344,1.660156 2,3.570312 2,5.597656 0,0.6875 -0.08594,1.359375 -0.246093,2.015625 -0.417969,1.707031 -1.351563,3.285156 -2.6875,4.652344 -1.363282,1.402343 -3.148438,2.578125 -5.226563,3.441406 -0.894531,0.375 -1.847656,0.6875 -2.84375,0.9375 -1.691406,0.417969 -3.511719,0.648437 -5.40625,0.648437 -2.335937,0 -4.550781,-0.347656 -6.558594,-0.972656 -2.738281,-0.851562 -5.085937,-2.21875 -6.800781,-3.933594 -0.625,-0.625 -1.167969,-1.296874 -1.613281,-2.003906 -0.550781,-0.871094 -0.953125,-1.800781 -1.191407,-2.769531 -0.164062,-0.65625 -0.25,-1.328125 -0.25,-2.015625 0,-0.902344 0.152344,-1.78125 0.417969,-2.625 l -4.09375,-4.144531 c -1.5,2.222656 -2.347656,4.730469 -2.347656,7.382812 0,0.683594 0.06641,1.355469 0.171875,2.015625 0.261719,1.605469 0.839844,3.136719 1.675781,4.566406 0.417969,0.714844 0.90625,1.40625 1.457031,2.070313 1.441407,1.738281 3.296876,3.261719 5.476563,4.5 3.777344,2.152344 8.511719,3.433594 13.65625,3.433594 3.597656,0 6.992187,-0.625 10.003906,-1.738281 0.917969,-0.335938 1.792969,-0.71875 2.632813,-1.144532 1.941406,-0.980468 3.664062,-2.183594 5.101562,-3.554687 2.414063,-2.304688 4.027344,-5.09375 4.523438,-8.132813 0.109375,-0.660156 0.171875,-1.332031 0.171875,-2.015625 0,-3.722656 -1.65625,-7.15625 -4.457031,-9.925781"
       fill="#ffffff"
       id="path216" />
    <path
       d="m 56.585938,51.140625 4.117187,3.953125 c 2.074219,-0.863281 3.871094,-2.027344 5.238281,-3.429688 l -5.640625,-5.417968 -1.835937,-1.757813 4.351562,-4.53125 2.308594,-2.40625 3.386719,-3.527343 3.070312,-3.195313 13.660157,13.113281 -1.832032,1.914063 -11.191406,11.652343 c -1.179688,1.613282 -2.707031,3.046876 -4.515625,4.285157 l 4.597656,4.4375 21.566407,-22.460938 -22.460938,-21.566406 -8.410156,8.761719 -3.367188,3.503906 -3.097656,3.226562 -6.660156,6.96875 z m 0,0"
       fill="#1c63b7"
       id="path218" />
    <path
       d="m 37.605469,49.867188 c 0,0 0.105469,0.175781 0.121093,0.195312 0.328126,0.523438 0.78125,1.003906 1.207032,1.480469 L 45.644531,48.445312 30.226562,34.085938 29.804688,36.308594 41.902344,48.28125 Z m 0,0"
       fill="#98999b"
       id="path220" />
    <path
       d="m 74.917969,45.582031 c 0,0.683594 -0.0625,1.355469 -0.171875,2.015625 -0.496094,3.039063 -2.109375,5.828125 -4.523438,8.132813 -1.4375,1.371093 -3.160156,2.574219 -5.101562,3.554687 -0.839844,0.425782 -1.714844,0.808594 -2.632813,1.144532 -3.011719,1.113281 -6.40625,1.738281 -10.003906,1.738281 -5.144531,0 -9.878906,-1.28125 -13.65625,-3.433594 -2.179687,-1.238281 -4.035156,-2.761719 -5.476563,-4.5 C 32.800781,53.570312 32.3125,52.878906 31.894531,52.164062 31.058594,50.734375 30.480469,49.203125 30.21875,47.597656 30.113281,46.9375 30.046875,46.265625 30.046875,45.582031 c 0,-0.214843 0.01953,-0.425781 0.02734,-0.636719 0,-0.01172 -0.0039,-0.03125 -0.0078,-0.03906 -0.109375,0.660156 -0.01953,4.027344 -0.01953,4.707031 0,1.082031 0.144531,2.140625 0.414063,3.164063 0.207031,0.800781 0.496093,1.574218 0.851562,2.328125 0.902344,1.898437 2.253906,3.640625 3.964844,5.152343 4.117187,3.628907 10.296875,5.941407 17.207031,5.941407 4.792969,0 9.234375,-1.113281 12.878906,-3.007813 0.828125,-0.429687 1.617188,-0.902344 2.355469,-1.40625 1.808594,-1.238281 3.339844,-2.691406 4.519531,-4.304687 1.707031,-2.339844 2.679688,-5.019531 2.679688,-7.867188 0,-0.597656 0.05078,-3.445312 -0.0078,-4.574219 -0.0078,-0.15625 0.0078,0.347657 0.0078,0.542969"
       fill="#98999b"
       id="path222" />
    <path
       d="m 74.839844,68.585938 h -0.425782 v -0.152344 h 1.035157 v 0.152344 h -0.425781 v 1.25 h -0.183594 z m 0,0"
       fill="#98999b"
       id="path224" />
    <path
       d="m 76.75,69.21875 c -0.01172,-0.195312 -0.02344,-0.429688 -0.01953,-0.605469 h -0.0078 c -0.04687,0.164063 -0.105468,0.339844 -0.175781,0.53125 l -0.25,0.683594 H 76.16017 l -0.226562,-0.667969 c -0.06641,-0.199218 -0.125,-0.378906 -0.164063,-0.546875 h -0.0039 c -0.0039,0.175781 -0.01563,0.410157 -0.02734,0.621094 l -0.03516,0.601563 H 75.53125 l 0.09766,-1.402344 h 0.230469 l 0.238281,0.675781 c 0.05859,0.175781 0.105469,0.328125 0.140625,0.472656 h 0.0078 c 0.03516,-0.140625 0.08594,-0.292969 0.148437,-0.472656 l 0.25,-0.675781 H 76.875 l 0.08594,1.402344 h -0.175782 z m 0,0"
       fill="#98999b"
       id="path226" />
    <text
       xml:space="preserve"
       style="font-size:21.3333px;line-height:4px;font-family:ROBO;-inkscape-font-specification:ROBO;text-align:center;letter-spacing:0px;word-spacing:0px;writing-mode:lr-tb;text-anchor:middle;fill:#000000;fill-opacity:1;stroke:none;stroke-width:1px;stroke-linecap:butt;stroke-linejoin:miter;stroke-opacity:1"
       x="64.189392"
       y="107.52653"
       id="text988"><tspan
         sodipodi:role="line"
         id="tspan986"
         x="64.189392"
         y="107.52653"
         style="font-style:normal;font-variant:normal;font-weight:bold;font-stretch:normal;font-size:21.3333px;font-family:'Inter UI';-inkscape-font-specification:'Inter UI Bold';fill:#ffffff">MatchBox™</tspan></text>
    <text
       xml:space="preserve"
       style="font-size:10.6667px;line-height:2px;font-family:ROBO;-inkscape-font-specification:ROBO;text-align:center;letter-spacing:0px;word-spacing:0px;writing-mode:lr-tb;text-anchor:middle;fill:none;stroke:#000000;stroke-width:1px;stroke-linecap:butt;stroke-linejoin:miter;stroke-opacity:1"
       x="64.17614"
       y="119.74452"
       id="text1650"><tspan
         sodipodi:role="line"
         id="tspan1648"
         x="64.17614"
         y="119.74452"
         style="font-style:normal;font-variant:normal;font-weight:bold;font-stretch:normal;font-size:10.6667px;font-family:'Inter UI';-inkscape-font-specification:'Inter UI Bold';fill:#ffffff;fill-opacity:1;stroke:none">Application loading...</tspan></text>
  </g>
</svg>
